<?xml version="1.0" standalone="no"?>
<!DOCTYPE svg PUBLIC "-//W3C//DTD SVG 20010904//EN"
 "http://www.w3.org/TR/2001/REC-SVG-20010904/DTD/svg10.dtd">
<svg version="1.0" xmlns="http://www.w3.org/2000/svg"
 width="5120.000000pt" height="5120.000000pt" viewBox="0 0 5120.000000 5120.000000"
 preserveAspectRatio="xMidYMid meet">
<metadata>
Created by potrace 1.14, written by Peter Selinger 2001-2017
</metadata>
<g transform="translate(0.000000,5120.000000) scale(0.100000,-0.100000)"
fill="#000000" stroke="none">
<path d="M17309 30396 c-2 -2 -53 -7 -114 -10 -60 -4 -141 -11 -178 -16 -37
-4 -79 -7 -92 -5 -14 1 -25 -1 -25 -4 0 -4 -15 -8 -32 -10 -49 -3 -103 -10
-103 -11 0 -2 -33 -8 -80 -15 -22 -3 -53 -8 -70 -11 -16 -3 -39 -7 -50 -9 -11
-2 -31 -6 -45 -9 -35 -8 -72 -16 -95 -20 -11 -2 -60 -14 -110 -26 -49 -13 -97
-24 -105 -25 -8 -1 -28 -8 -45 -14 -16 -7 -42 -13 -57 -14 -15 -1 -28 -6 -28
-10 0 -5 -4 -5 -10 -2 -5 3 -10 1 -10 -5 0 -6 -4 -9 -8 -6 -4 2 -35 -4 -67
-15 -33 -12 -64 -21 -70 -23 -5 -1 -23 -7 -40 -13 -16 -6 -64 -23 -105 -38
-41 -15 -84 -31 -95 -36 -11 -4 -45 -18 -75 -29 -107 -42 -323 -142 -332 -155
-4 -5 -8 -7 -8 -3 0 4 -22 -6 -50 -22 -27 -16 -50 -27 -50 -24 0 3 -12 -3 -27
-14 -16 -10 -35 -22 -43 -25 -8 -4 -37 -20 -65 -37 -27 -17 -58 -33 -67 -37
-10 -3 -18 -9 -18 -14 0 -5 -6 -9 -13 -9 -7 0 -28 -11 -47 -25 -18 -13 -37
-22 -41 -19 -5 3 -9 1 -9 -4 0 -5 -44 -38 -97 -73 -54 -34 -102 -67 -108 -71
-5 -4 -53 -40 -105 -79 -80 -61 -149 -115 -207 -164 -89 -76 -142 -124 -279
-260 -89 -88 -207 -214 -264 -280 -111 -131 -316 -404 -313 -417 2 -4 -1 -8
-6 -8 -6 0 -16 -11 -23 -24 -7 -13 -33 -56 -58 -96 -25 -39 -52 -84 -61 -98
-36 -60 -111 -197 -141 -257 -11 -22 -24 -47 -29 -55 -5 -8 -12 -22 -15 -30
-4 -8 -28 -60 -54 -115 -26 -55 -55 -125 -66 -155 -10 -30 -22 -56 -26 -58 -5
-2 -8 -9 -8 -15 0 -7 -23 -74 -50 -149 -27 -75 -52 -147 -54 -160 -3 -13 -5
-24 -7 -25 -1 -2 -3 -7 -4 -13 -1 -5 -4 -12 -5 -15 -1 -3 -4 -9 -5 -15 -1 -5
-3 -11 -5 -12 -1 -2 -3 -10 -5 -18 -1 -9 -12 -50 -24 -93 -18 -66 -53 -214
-67 -282 -2 -11 -6 -31 -9 -45 -5 -26 -14 -78 -20 -120 -2 -14 -7 -36 -10 -50
-3 -14 -7 -45 -10 -70 -2 -25 -7 -63 -10 -85 -10 -65 -23 -206 -31 -329 -11
-172 -5 -533 12 -752 3 -38 7 -90 8 -115 2 -26 5 -50 8 -55 5 -10 10 -59 12
-111 1 -18 3 -33 6 -33 3 0 5 -10 6 -22 1 -21 3 -37 19 -128 7 -41 23 -127 30
-155 2 -11 11 -51 20 -90 9 -38 18 -80 21 -93 2 -13 12 -43 20 -68 8 -25 13
-48 10 -51 -3 -3 1 -18 9 -33 8 -15 11 -30 8 -34 -4 -3 -2 -6 3 -6 5 0 11 -10
12 -22 1 -13 22 -81 48 -153 25 -71 47 -134 48 -140 1 -5 10 -27 19 -47 8 -20
25 -64 38 -97 12 -34 25 -61 29 -61 4 0 7 -6 7 -12 0 -7 25 -66 56 -132 32
-65 57 -122 57 -127 0 -4 6 -14 13 -21 6 -7 25 -38 40 -68 15 -30 32 -62 37
-70 129 -217 231 -373 314 -480 27 -36 63 -83 80 -105 28 -36 100 -122 181
-214 138 -158 449 -441 640 -582 44 -33 88 -66 98 -74 9 -8 20 -15 23 -15 3 0
23 -13 44 -30 21 -16 41 -30 44 -30 4 0 12 -5 19 -10 17 -15 108 -74 181 -117
102 -60 129 -75 191 -108 33 -18 76 -41 97 -53 20 -11 39 -18 42 -15 3 4 6 1
6 -6 0 -7 5 -9 10 -6 6 3 10 2 10 -2 0 -9 59 -37 73 -34 4 0 7 -4 7 -10 0 -5
4 -8 8 -5 5 3 23 -4 40 -15 18 -10 39 -19 46 -19 8 0 16 -4 18 -10 2 -5 12
-11 23 -13 11 -2 36 -11 55 -20 30 -13 62 -26 80 -32 3 -1 16 -6 30 -12 97
-41 400 -144 400 -136 0 3 7 0 15 -7 8 -7 15 -10 15 -6 0 3 12 1 28 -5 25 -10
145 -42 202 -55 14 -3 51 -12 82 -20 53 -13 124 -28 188 -40 14 -2 36 -7 48
-10 23 -5 59 -10 127 -19 17 -2 30 -4 30 -5 0 -4 78 -15 180 -26 28 -3 66 -7
85 -9 161 -20 349 -29 635 -29 284 0 498 8 609 23 38 5 56 4 56 -3 0 -7 3 -7
8 -1 9 12 14 13 94 19 35 3 63 5 63 6 0 1 11 3 25 5 86 11 184 25 270 40 92
15 384 77 407 86 13 5 29 7 34 3 5 -3 9 0 9 7 0 7 3 10 6 7 3 -3 29 1 57 9 29
8 59 16 67 18 8 2 17 4 20 5 3 1 10 3 15 4 36 6 401 123 420 135 6 3 15 6 20
8 22 4 122 42 150 57 17 9 35 16 41 16 5 0 30 10 54 21 24 12 49 22 54 24 14
3 72 28 171 75 44 20 95 43 113 51 17 8 32 17 32 21 0 5 6 8 14 8 7 0 44 17
82 38 38 20 87 46 109 57 22 11 45 25 51 31 7 6 27 17 46 25 18 7 38 17 43 21
6 5 48 31 95 59 137 82 360 231 360 240 0 5 4 8 9 7 6 -2 22 7 38 19 15 12 75
57 133 100 58 43 113 85 123 95 11 9 40 33 66 55 l48 38 0 2142 c0 1959 -1
2143 -16 2144 -56 4 -3834 3 -3840 -1 -4 -3 -7 -420 -7 -926 l1 -921 712 0
c392 0 716 -2 719 -6 3 -3 6 -292 5 -643 0 -626 -1 -637 -21 -656 -11 -10 -20
-16 -20 -13 0 3 -19 -7 -42 -23 -72 -49 -322 -167 -373 -176 -5 -1 -14 -4 -20
-8 -9 -5 -152 -47 -185 -53 -8 -2 -15 -4 -15 -5 0 -2 -16 -5 -59 -14 -16 -3
-52 -10 -80 -15 -72 -15 -104 -20 -157 -26 -25 -3 -55 -7 -67 -10 -96 -18
-529 -26 -687 -12 -95 8 -321 45 -373 61 -9 3 -28 7 -42 10 -14 3 -40 9 -58
15 -18 5 -33 10 -35 10 -1 0 -9 2 -17 5 -59 19 -96 30 -100 31 -8 0 -102 36
-140 52 -55 24 -284 137 -295 145 -27 22 -87 58 -95 58 -6 0 -10 5 -10 10 0 6
-5 10 -10 10 -25 0 -225 165 -340 280 -135 136 -141 143 -215 240 -28 36 -53
67 -57 68 -5 2 -8 8 -8 13 0 6 -17 36 -38 67 -35 52 -55 86 -121 205 -11 20
-18 37 -14 37 3 0 -1 8 -9 18 -8 9 -21 33 -28 52 -7 19 -25 62 -40 95 -14 33
-32 80 -40 105 -7 25 -17 50 -21 55 -8 12 -76 273 -84 325 -3 19 -10 55 -15
80 -9 42 -17 99 -25 195 -2 22 -7 67 -10 100 -11 122 -5 482 9 550 3 11 5 37
5 58 1 21 4 36 9 34 4 -3 8 16 9 42 1 25 13 98 28 161 14 63 28 122 30 130 2
8 8 27 13 41 6 15 8 30 4 34 -3 3 -1 9 6 13 6 5 14 19 16 32 2 14 5 26 7 28 1
1 2 5 4 10 1 4 4 14 7 22 17 44 21 56 23 66 3 12 14 37 63 144 16 36 29 68 28
71 0 4 8 16 18 28 11 12 16 21 12 21 -4 0 7 20 24 45 17 25 29 45 26 45 -5 0
34 64 54 87 6 7 15 24 22 38 6 14 15 25 20 25 4 0 8 6 8 14 0 7 11 25 25 40
14 15 25 31 25 35 0 5 11 19 25 32 13 13 25 28 25 32 0 4 11 18 25 31 14 13
25 27 25 31 0 8 228 236 275 275 63 53 190 146 239 177 83 52 200 117 214 119
8 1 22 10 31 18 10 9 21 13 24 9 4 -3 7 -1 7 5 0 7 8 12 18 12 10 0 28 7 40
16 12 8 22 12 22 8 0 -3 7 0 17 7 9 8 17 12 17 10 1 -2 17 3 37 12 51 21 227
75 268 82 19 3 38 8 43 11 4 3 22 7 40 9 18 2 44 6 57 9 25 6 94 16 151 22 19
2 85 6 145 8 61 3 112 6 115 7 3 1 8 1 13 0 4 -1 66 -4 139 -7 72 -3 154 -7
182 -10 96 -9 178 -20 211 -27 11 -3 40 -8 65 -11 55 -7 262 -58 348 -84 34
-11 62 -17 62 -13 0 3 4 1 8 -5 4 -6 39 -21 77 -34 70 -23 133 -49 235 -98 30
-15 58 -26 63 -24 4 1 7 -2 7 -7 0 -5 10 -13 23 -17 12 -3 69 -33 126 -66 58
-33 114 -65 125 -72 12 -6 24 -15 28 -20 6 -9 50 35 73 73 6 9 30 44 54 76 25
33 85 114 134 180 48 66 97 131 107 145 10 14 49 66 85 115 36 50 75 101 85
115 10 14 62 84 115 155 53 72 101 137 108 145 7 9 28 38 47 65 18 28 40 54
47 58 7 4 13 14 13 22 0 7 4 15 8 17 4 2 23 25 42 52 19 27 43 59 52 70 10 12
65 86 124 166 100 135 194 262 212 285 4 6 25 35 47 65 22 30 45 61 52 68 7 7
13 16 13 20 -1 9 -46 38 -190 123 -63 38 -120 72 -125 76 -24 18 -288 152
-390 197 -33 15 -73 33 -90 40 -88 40 -124 54 -160 66 -22 7 -44 16 -50 20 -5
4 -66 26 -135 49 -69 23 -132 45 -140 48 -19 8 -16 7 -83 23 -32 7 -60 17 -63
21 -2 5 -11 6 -19 2 -8 -3 -15 0 -15 7 0 6 -4 8 -10 5 -5 -3 -16 -3 -22 2 -7
4 -21 9 -32 10 -10 2 -62 14 -115 28 -142 35 -243 55 -252 49 -5 -3 -9 -1 -9
5 0 5 -8 10 -17 9 -17 0 -62 6 -123 18 -25 5 -34 6 -125 19 -67 9 -91 12 -150
19 -82 9 -256 27 -310 32 -69 5 -811 15 -816 10z"/>
<path d="M35945 30389 c-44 -3 -118 -10 -165 -15 -47 -4 -97 -8 -112 -8 -16
-1 -28 -3 -28 -6 0 -3 -8 -6 -17 -6 -10 0 -45 -4 -78 -8 -33 -4 -72 -8 -87 -9
-16 0 -28 -4 -28 -8 0 -4 -8 -6 -17 -5 -10 2 -31 -1 -48 -5 -16 -4 -45 -10
-62 -13 -18 -3 -48 -9 -65 -12 -18 -3 -89 -19 -158 -36 -69 -17 -132 -32 -140
-33 -8 -1 -22 -5 -30 -8 -8 -3 -42 -13 -75 -22 -80 -22 -306 -97 -375 -125
-30 -12 -60 -23 -67 -24 -7 -1 -16 -5 -19 -9 -4 -4 -16 -7 -26 -7 -10 0 -18
-3 -18 -8 0 -4 -17 -12 -38 -19 -21 -7 -87 -35 -146 -62 -59 -28 -111 -51
-116 -51 -4 0 -13 -7 -20 -15 -7 -9 -15 -13 -18 -10 -3 2 -32 -11 -66 -29 -34
-18 -88 -48 -121 -66 -121 -65 -338 -201 -470 -295 -38 -27 -71 -53 -73 -57
-2 -5 -10 -8 -17 -8 -7 0 -15 -3 -17 -8 -1 -4 -41 -37 -88 -74 -47 -37 -98
-78 -115 -93 -16 -14 -55 -47 -85 -73 -73 -62 -352 -341 -418 -417 -29 -33
-58 -67 -66 -75 -7 -8 -34 -41 -60 -73 -25 -32 -51 -64 -56 -70 -6 -7 -35 -46
-66 -87 -30 -41 -61 -82 -67 -90 -32 -41 -147 -221 -147 -230 0 -5 -4 -10 -8
-10 -5 0 -17 -17 -29 -37 -11 -21 -43 -78 -71 -126 -28 -49 -54 -97 -57 -108
-4 -10 -11 -19 -16 -19 -5 0 -8 -3 -7 -7 1 -5 -28 -69 -64 -143 -57 -118 -156
-346 -163 -375 -3 -14 -15 -45 -30 -80 -8 -16 -11 -33 -9 -37 3 -4 0 -8 -5 -8
-6 0 -10 -3 -9 -7 1 -5 -12 -55 -31 -113 -50 -161 -51 -166 -56 -186 -2 -10
-12 -46 -21 -79 -16 -58 -19 -73 -29 -125 -3 -14 -7 -36 -11 -50 -3 -14 -8
-41 -10 -60 -3 -19 -8 -42 -11 -50 -3 -8 -8 -26 -10 -40 -1 -14 -6 -41 -10
-60 -7 -38 -7 -41 -17 -120 -3 -30 -8 -66 -11 -80 -4 -25 -13 -105 -21 -195
-2 -27 -6 -110 -8 -184 -3 -73 -7 -135 -10 -138 -3 -3 -1 -13 4 -23 5 -10 7
-20 3 -23 -11 -12 5 -436 21 -562 4 -27 12 -86 17 -130 14 -113 19 -144 30
-192 5 -24 8 -46 7 -50 -1 -5 2 -19 5 -33 4 -14 9 -36 12 -50 2 -14 9 -43 14
-65 6 -22 10 -42 11 -45 17 -94 80 -327 106 -395 9 -22 15 -40 14 -40 -2 0 11
-39 19 -55 4 -8 14 -39 21 -67 8 -29 18 -53 22 -53 5 0 7 -4 3 -9 -3 -5 -1
-12 5 -16 5 -3 10 -13 10 -21 0 -8 8 -34 19 -57 28 -65 34 -81 33 -89 -1 -5 2
-8 7 -8 9 0 26 -48 23 -62 -1 -5 3 -8 9 -8 5 0 7 -4 4 -10 -3 -5 -1 -10 4 -10
6 0 11 -6 11 -14 0 -16 142 -300 152 -304 5 -2 8 -8 8 -13 0 -18 236 -397 283
-454 4 -5 25 -33 45 -60 50 -68 189 -242 227 -284 209 -234 439 -452 649 -616
21 -16 45 -36 52 -42 7 -7 16 -13 19 -13 4 0 25 -15 48 -34 23 -18 85 -62 137
-97 52 -35 97 -67 98 -72 2 -4 8 -5 13 -1 5 3 9 0 9 -5 0 -6 7 -11 15 -11 8 0
15 -4 15 -10 0 -5 6 -10 14 -10 8 0 16 -3 18 -7 4 -9 48 -36 98 -61 19 -9 37
-19 40 -22 6 -6 12 -9 135 -75 50 -26 96 -52 103 -58 6 -5 12 -6 12 -2 0 5 8
1 18 -7 15 -13 44 -27 57 -28 3 0 26 -11 53 -24 94 -49 260 -117 278 -115 4 0
10 -3 13 -8 3 -4 38 -18 76 -31 39 -13 79 -27 90 -32 59 -24 105 -39 105 -34
0 4 6 2 13 -4 12 -10 35 -17 100 -29 15 -3 27 -9 27 -14 0 -5 3 -8 8 -7 10 3
85 -12 97 -20 5 -3 16 -7 25 -8 8 -1 62 -13 120 -27 58 -15 116 -28 130 -31
14 -3 37 -8 53 -11 40 -8 78 -14 117 -21 56 -9 75 -12 75 -14 0 -2 87 -14 195
-26 83 -10 95 -11 95 -13 0 -1 29 -4 65 -6 36 -2 101 -7 145 -11 170 -14 732
-8 890 11 17 1 57 6 90 9 33 4 69 8 80 10 11 2 49 7 85 11 74 9 96 12 126 19
31 7 95 18 124 21 14 2 25 4 25 5 0 2 33 9 70 15 17 3 84 19 150 35 122 31
162 40 180 44 6 1 15 5 22 9 6 4 23 8 37 9 14 1 26 5 26 8 0 3 8 6 18 7 26 2
353 115 427 148 17 7 57 24 90 38 33 14 94 41 136 61 42 20 82 36 88 36 6 0
11 4 11 8 0 6 39 25 68 32 4 1 18 10 32 19 14 10 48 29 75 43 117 61 141 74
153 86 7 6 18 12 23 12 5 0 15 5 22 10 7 6 66 45 132 86 66 42 129 84 141 95
11 10 25 19 30 19 6 0 21 11 34 25 13 14 28 25 32 25 5 0 16 6 23 13 18 15 26
22 105 82 36 28 67 52 70 55 3 3 37 32 75 65 123 105 136 117 279 260 135 134
206 210 271 290 17 20 39 47 50 60 44 52 77 94 129 165 31 41 59 80 63 85 33
43 63 85 63 89 0 2 19 33 43 68 131 195 379 658 367 687 -1 2 2 7 7 10 4 3 14
22 22 41 7 19 26 69 43 110 34 88 90 241 92 255 1 6 9 30 18 55 28 80 52 165
49 178 -1 6 3 12 9 12 6 0 9 4 6 8 -3 5 4 44 16 88 11 43 21 84 22 89 8 33 20
93 22 110 1 11 3 20 4 20 2 0 9 33 15 70 6 38 12 72 19 110 3 17 8 55 12 85 3
30 8 69 10 85 4 30 8 67 20 185 16 157 8 785 -12 940 -11 87 -16 129 -19 160
-2 19 -4 35 -5 35 -1 0 -4 14 -5 30 -2 17 -6 44 -9 60 -3 17 -9 46 -12 65 -3
19 -7 42 -9 50 -2 8 -7 29 -10 47 -4 26 -23 108 -51 223 -2 8 -13 49 -24 90
-11 41 -23 83 -25 93 -2 9 -6 21 -9 25 -3 5 -7 19 -10 33 -12 54 -125 361
-171 464 -13 28 -33 73 -45 100 -23 53 -39 86 -58 123 -7 12 -17 32 -24 45
-70 135 -105 198 -125 227 -12 19 -23 40 -23 47 0 7 -4 13 -10 13 -5 0 -10 5
-10 10 0 12 -151 243 -162 248 -5 2 -8 8 -8 13 0 6 -5 15 -10 22 -6 7 -43 55
-83 108 -61 81 -132 170 -172 215 -5 7 -35 40 -65 75 -60 69 -330 344 -330
336 0 -3 -17 12 -38 32 -60 58 -121 111 -127 111 -3 0 -19 14 -35 30 -16 17
-32 30 -35 30 -4 0 -12 6 -19 13 -14 14 -50 41 -121 94 -27 20 -67 49 -87 65
-20 15 -42 28 -47 28 -6 0 -11 5 -11 10 0 6 -5 10 -10 10 -6 0 -20 8 -31 18
-10 11 -32 25 -47 33 -15 8 -31 18 -37 22 -84 67 -610 350 -652 350 -7 0 -13
4 -13 8 0 4 -17 13 -37 20 -21 6 -42 14 -48 18 -5 3 -12 6 -15 7 -3 0 -18 6
-33 12 -16 7 -33 12 -38 12 -5 0 -9 4 -9 8 0 4 -10 8 -22 9 -11 1 -25 8 -29
15 -5 7 -9 10 -9 6 0 -4 -37 7 -82 24 -74 27 -227 77 -253 83 -5 1 -17 5 -25
8 -46 18 -338 91 -455 114 -44 8 -91 17 -105 20 -63 12 -160 25 -182 25 -10
-1 -18 2 -18 6 0 4 -17 7 -38 8 -20 0 -57 4 -82 7 -53 7 -136 15 -275 26 -120
10 -637 10 -750 0z m545 -2303 c36 -2 65 -5 65 -6 0 -1 18 -3 40 -5 53 -4 99
-11 160 -25 28 -6 64 -13 80 -16 58 -11 131 -32 220 -64 50 -17 96 -32 103
-32 6 -1 12 -4 12 -8 0 -4 6 -7 13 -7 21 0 319 -151 325 -165 2 -5 10 -8 18
-8 8 0 14 -4 14 -10 0 -5 5 -10 11 -10 6 0 28 -13 49 -30 21 -16 43 -30 49
-30 6 0 11 -4 11 -10 0 -5 12 -16 28 -24 15 -9 45 -31 67 -50 22 -20 49 -44
61 -53 34 -30 143 -133 140 -133 -2 0 15 -19 38 -43 68 -72 96 -106 201 -252
51 -70 139 -220 135 -231 -1 -4 4 -10 12 -15 7 -5 13 -12 14 -16 0 -4 20 -48
43 -98 40 -84 99 -230 106 -265 2 -8 4 -16 5 -17 2 -2 4 -7 5 -13 1 -5 4 -12
5 -15 3 -5 3 -6 15 -50 4 -16 10 -34 13 -40 4 -5 7 -16 8 -25 1 -8 11 -58 24
-110 51 -222 63 -344 62 -620 0 -191 -5 -292 -17 -367 -17 -115 -30 -178 -52
-273 -14 -58 -26 -112 -28 -120 -2 -8 -4 -16 -5 -17 -2 -2 -4 -7 -5 -13 -1 -5
-4 -12 -5 -15 -1 -3 -3 -8 -4 -12 -6 -26 -52 -157 -72 -206 -66 -157 -212
-427 -235 -435 -5 -2 -7 -8 -3 -13 3 -5 0 -9 -5 -9 -6 0 -11 -6 -11 -14 0 -8
-3 -16 -7 -18 -5 -1 -28 -30 -53 -63 -56 -75 -62 -83 -135 -163 -77 -84 -212
-212 -255 -242 -12 -8 -32 -23 -43 -34 -44 -37 -209 -146 -224 -146 -6 0 -13
-4 -15 -9 -6 -16 -290 -150 -294 -139 0 2 -8 -3 -17 -11 -10 -7 -17 -11 -17
-7 0 4 -15 -1 -32 -11 -18 -9 -40 -18 -48 -19 -8 -1 -49 -12 -90 -24 -41 -12
-79 -23 -85 -24 -5 -2 -21 -6 -35 -9 -14 -4 -36 -9 -50 -11 -14 -2 -41 -7 -60
-10 -19 -3 -48 -8 -65 -11 -56 -10 -150 -18 -207 -19 -32 -1 -58 -5 -58 -9 0
-4 -9 -3 -19 3 -14 7 -22 7 -26 0 -5 -7 -11 -8 -19 -1 -7 6 -17 6 -26 1 -8 -5
-21 -5 -30 0 -11 6 -21 5 -28 -2 -7 -7 -12 -8 -12 -3 0 6 -28 10 -63 11 -84 1
-226 16 -287 29 -14 4 -43 8 -65 11 -21 3 -43 8 -48 11 -4 3 -22 7 -39 10 -41
6 -280 83 -294 94 -6 5 -14 6 -17 2 -4 -3 -7 -2 -7 4 0 5 -6 10 -13 10 -7 0
-36 11 -65 26 -28 14 -52 24 -52 22 0 -2 -26 12 -57 31 -31 19 -62 34 -68 34
-6 0 -20 8 -31 18 -10 9 -39 28 -64 42 -25 13 -53 31 -63 40 -9 9 -30 23 -45
31 -15 8 -29 17 -32 20 -3 4 -41 35 -85 70 -121 95 -273 252 -377 388 -15 20
-31 41 -36 46 -26 33 -112 166 -112 175 0 5 -5 10 -11 10 -5 0 -7 5 -4 10 3 6
2 10 -3 10 -11 0 -162 300 -162 322 0 8 -4 18 -9 23 -9 9 -88 238 -96 278 -2
10 -7 27 -10 37 -6 18 -9 32 -21 95 -9 44 -12 60 -14 60 -2 0 -8 34 -15 85 -3
25 -8 56 -10 70 -2 14 -7 52 -11 85 -12 97 -7 640 6 640 1 0 3 14 5 30 6 54
20 144 30 185 3 14 7 37 10 53 17 92 89 319 131 414 8 17 14 36 14 42 0 6 4
11 9 11 5 0 8 6 8 13 -2 23 118 250 181 341 17 26 32 49 32 52 0 5 120 162
160 209 68 80 244 247 315 299 22 17 42 32 45 35 3 4 25 20 50 36 25 17 50 35
56 40 6 6 28 19 50 30 21 11 43 26 47 33 4 6 16 12 27 12 10 0 20 3 22 8 5 11
126 72 143 72 8 0 15 5 15 10 0 6 7 10 16 10 9 0 28 7 42 14 61 33 314 112
417 131 17 2 41 7 55 10 48 10 105 17 142 19 21 0 38 3 38 6 0 3 21 5 48 5 26
0 63 2 82 5 35 6 210 3 330 -4z"/>
<path d="M44841 30225 c-1 -7 -399 -10 -1173 -10 l-1173 0 -1 -4605 c-1 -2533
2 -4607 6 -4610 5 -3 574 -5 1266 -4 l1258 0 0 2523 0 2523 35 -40 c20 -22 77
-93 126 -158 50 -65 100 -129 113 -142 12 -14 22 -28 22 -31 0 -3 10 -17 23
-31 12 -14 35 -43 52 -65 16 -22 34 -44 40 -50 6 -5 38 -46 71 -90 32 -44 61
-82 65 -85 3 -3 18 -23 34 -45 17 -22 33 -42 36 -45 3 -3 54 -68 114 -145 60
-77 127 -163 149 -192 23 -28 52 -66 66 -84 14 -18 33 -41 43 -51 9 -10 17
-20 17 -23 0 -4 78 -106 129 -167 9 -11 42 -53 199 -255 9 -12 35 -45 57 -74
22 -28 61 -78 88 -110 26 -32 47 -62 47 -68 0 -5 4 -11 8 -13 8 -3 80 -90 117
-142 11 -15 29 -38 40 -50 11 -12 29 -35 40 -51 11 -15 40 -53 65 -84 48 -59
186 -236 255 -327 23 -29 53 -67 68 -83 15 -17 27 -33 27 -36 0 -3 31 -45 70
-93 38 -48 73 -91 78 -97 4 -5 32 -41 62 -80 29 -38 71 -91 92 -116 21 -26 38
-51 38 -55 0 -5 9 -15 20 -22 11 -7 20 -19 20 -27 0 -8 3 -15 8 -15 4 0 32
-33 62 -72 30 -40 57 -75 61 -78 3 -3 32 -40 63 -82 32 -43 62 -78 67 -78 5 0
9 -7 9 -15 0 -9 7 -18 15 -21 8 -4 15 -11 15 -18 0 -6 14 -25 30 -43 17 -18
30 -34 30 -37 0 -4 8 -14 18 -24 39 -41 60 -71 55 -76 -4 -3 -2 -6 4 -6 5 0
25 -21 43 -47 19 -27 40 -52 47 -56 7 -4 13 -14 13 -22 0 -7 3 -15 8 -17 4 -1
23 -23 42 -48 19 -25 42 -54 52 -65 20 -25 134 -170 168 -215 14 -18 62 -80
108 -136 45 -57 82 -108 82 -113 0 -5 4 -11 8 -13 8 -2 34 -34 155 -188 7 -8
37 -48 67 -88 30 -39 58 -72 62 -72 5 0 8 -4 8 -10 0 -5 9 -20 19 -32 10 -13
39 -47 63 -77 l43 -55 1110 0 1110 0 3 4611 2 4610 -1265 0 -1265 0 0 -2431 0
-2431 -35 40 c-19 22 -41 48 -49 58 -9 9 -16 21 -16 27 0 5 -9 15 -20 22 -11
7 -20 17 -20 23 0 5 -21 33 -45 60 -25 28 -45 53 -45 57 0 4 -6 13 -13 20 -7
7 -48 60 -92 117 -44 57 -90 115 -102 129 -13 14 -23 28 -23 31 0 3 -10 17
-23 31 -12 14 -45 54 -72 90 -27 36 -54 70 -60 77 -17 21 -30 37 -60 78 -33
44 -38 51 -89 115 -20 25 -40 50 -44 55 -28 38 -77 101 -82 105 -3 3 -25 32
-50 65 -25 33 -50 66 -57 75 -87 110 -112 141 -133 169 -14 18 -29 38 -35 45
-10 12 -26 32 -125 161 -30 39 -60 76 -67 83 -7 7 -13 16 -13 20 0 4 -16 25
-35 47 -43 49 -45 52 -75 95 -14 19 -31 41 -38 48 -7 8 -25 30 -40 50 -15 21
-29 39 -32 42 -3 3 -30 38 -60 78 -30 39 -58 72 -62 72 -5 0 -8 4 -8 10 0 9
-16 31 -45 64 -6 6 -22 27 -35 46 -13 19 -35 46 -47 60 -13 14 -23 28 -23 32
0 4 -8 15 -18 25 -10 10 -41 47 -68 83 -27 36 -51 67 -54 70 -3 3 -21 25 -40
50 -19 25 -38 47 -42 48 -5 2 -8 8 -8 13 0 6 -13 24 -30 42 -16 18 -30 35 -30
40 0 4 -8 15 -17 25 -10 10 -29 32 -43 51 -58 76 -105 136 -110 141 -3 3 -25
32 -50 65 -25 33 -47 62 -50 65 -3 3 -40 50 -82 105 -42 55 -86 110 -97 121
-11 12 -17 25 -14 28 4 3 2 6 -4 6 -5 0 -25 21 -43 48 -19 26 -37 49 -40 52
-3 3 -21 25 -40 50 -19 25 -39 50 -45 56 -5 7 -19 24 -30 40 -24 33 -108 143
-127 165 -7 8 -35 44 -63 80 -27 35 -52 66 -55 69 -4 4 -46 59 -111 145 -5 5
-24 29 -43 51 -20 23 -36 46 -36 52 0 6 -3 12 -8 14 -6 2 -49 55 -84 103 -4 6
-21 26 -38 45 -16 19 -30 38 -30 42 0 5 -8 16 -17 26 -34 35 -63 72 -63 80 0
4 -9 14 -20 22 -11 8 -20 20 -20 26 0 7 -4 14 -8 16 -4 2 -61 72 -127 156 -70
90 -124 151 -131 148 -7 -3 -15 0 -18 7 -2 7 -5 8 -5 2z"/>
<path d="M2 25606 l3 -4611 1275 0 1275 0 0 25 c1 14 4 31 8 38 5 6 5 12 0 12
-4 0 -7 82 -6 182 2 101 3 188 3 193 0 6 -1 151 -3 323 -1 173 2 312 7 312 5
0 4 6 -1 13 -10 15 -10 337 1 355 4 6 4 12 -1 12 -4 0 -8 131 -8 290 0 160 4
290 8 290 5 0 5 6 1 12 -9 14 -12 555 -4 568 3 5 381 11 840 13 459 2 864 7
900 11 132 13 266 27 310 33 25 3 59 7 75 8 17 2 30 4 30 5 0 1 14 4 30 6 32
3 46 6 145 24 36 7 76 14 90 15 14 2 27 4 30 5 3 1 8 2 12 1 4 0 20 4 35 10
15 6 41 12 56 15 47 6 266 64 335 88 23 8 42 13 42 9 0 -3 7 0 15 7 9 7 23 14
33 15 34 3 72 17 72 27 0 5 4 7 9 3 9 -5 134 41 246 91 22 10 43 17 48 16 4
-1 7 3 7 10 0 6 3 8 6 5 4 -3 16 -1 28 5 11 7 23 13 26 13 3 1 52 26 110 55
58 30 111 56 118 58 6 2 12 8 12 13 0 6 5 7 10 4 6 -3 10 -1 10 4 0 6 6 11 13
11 6 0 49 24 95 54 45 30 82 52 82 50 0 -3 12 7 27 21 15 14 31 25 35 25 9 0
169 121 248 188 113 95 374 367 404 420 5 9 18 25 28 36 10 11 30 38 45 60 15
23 30 43 34 46 9 8 122 192 135 220 4 8 17 29 28 45 12 17 20 32 20 35 -2 9
19 50 26 50 4 0 7 6 7 13 0 6 10 35 23 62 46 101 89 205 84 205 -2 0 2 10 10
23 8 12 15 25 16 30 0 4 0 8 1 10 0 1 2 9 5 17 2 8 22 76 44 150 22 74 42 149
44 166 3 17 8 37 10 45 6 15 9 34 26 134 5 33 12 71 14 85 13 76 17 113 32
300 10 131 10 388 0 550 -10 157 -14 205 -17 205 -1 0 -3 16 -5 35 -2 19 -6
49 -9 65 -3 17 -7 44 -9 60 -2 17 -5 30 -6 30 -1 0 -3 14 -5 30 -1 17 -3 30
-5 30 -1 0 -4 14 -6 30 -8 47 -54 225 -71 275 -9 25 -17 52 -18 60 -2 8 -6 24
-10 35 -3 11 -5 24 -5 29 1 5 -2 12 -7 15 -4 3 -16 29 -27 56 -40 108 -55 143
-94 225 -23 47 -60 117 -82 155 -22 39 -43 78 -46 88 -4 9 -10 17 -15 17 -5 0
-9 7 -9 15 0 8 -4 15 -10 15 -5 0 -10 5 -10 11 0 9 -75 125 -90 139 -3 3 -17
21 -30 40 -24 34 -42 55 -80 95 -11 12 -20 24 -20 29 0 11 -283 292 -339 336
-24 19 -50 41 -58 48 -7 7 -13 10 -13 5 0 -4 -4 -3 -8 3 -11 16 -129 105 -192
144 -30 19 -57 37 -60 40 -9 9 -44 30 -77 45 -17 8 -35 19 -38 25 -4 6 -11 8
-16 5 -5 -4 -9 -2 -9 3 0 9 -196 110 -310 160 -119 53 -360 143 -390 146 -9 1
-20 5 -25 8 -6 3 -30 12 -55 19 -60 16 -62 17 -85 23 -11 2 -32 9 -47 15 -16
6 -28 8 -28 5 0 -4 -6 -1 -13 5 -8 6 -16 9 -19 6 -2 -3 -27 1 -54 9 -52 15
-222 51 -288 61 -21 3 -48 7 -60 10 -12 3 -41 7 -66 10 -25 3 -61 8 -80 11
-118 16 -189 24 -265 29 -33 3 -89 7 -125 11 -36 3 -1034 7 -2218 8 l-2152 3
2 -4611z m4028 2451 c19 -3 56 -8 81 -11 115 -14 286 -55 380 -91 20 -8 39
-11 43 -8 3 4 6 1 6 -5 0 -7 6 -12 13 -12 39 -1 256 -131 331 -199 80 -73 186
-199 186 -220 0 -5 3 -11 8 -13 15 -7 89 -171 108 -243 19 -69 25 -95 29 -125
3 -19 8 -46 11 -60 6 -23 11 -97 14 -200 3 -106 -15 -253 -46 -360 -53 -187
-144 -341 -281 -474 -100 -98 -120 -116 -131 -116 -5 0 -17 -9 -27 -20 -10
-11 -24 -20 -32 -20 -7 0 -13 -4 -13 -9 0 -5 -15 -14 -32 -22 -18 -7 -36 -17
-39 -22 -3 -4 -12 -9 -20 -11 -8 -1 -25 -8 -39 -16 -14 -8 -38 -20 -55 -26
-68 -26 -176 -64 -192 -68 -10 -1 -25 -6 -33 -9 -17 -7 -46 -13 -150 -31 -14
-3 -25 -5 -25 -6 0 -1 -18 -3 -40 -6 -22 -2 -65 -7 -95 -10 -30 -3 -365 -6
-745 -7 l-690 -2 0 208 c0 115 3 211 8 214 4 2 4 10 0 16 -10 16 -10 577 0
584 4 2 4 10 0 16 -10 16 -10 617 0 624 4 2 4 10 0 16 -10 16 -10 617 0 624 4
2 4 10 0 16 -10 16 -10 100 0 108 10 7 1417 3 1467 -4z"/>
<path d="M8956 30210 c-6 -10 -3 -9210 3 -9211 3 -1 572 -2 1263 -3 831 -1
1259 2 1261 9 2 6 3 2080 2 4610 l0 4600 -1263 0 c-695 1 -1265 -2 -1266 -5z"/>
<path d="M23020 30216 c-4 -9 0 -9207 3 -9213 7 -10 7463 -10 7473 0 5 4 8
494 9 1088 l0 1079 -2477 0 -2478 0 0 729 0 730 2210 -2 c1216 -1 2211 0 2211
3 4 14 5 1997 1 2008 -3 9 -455 12 -2213 12 l-2209 0 0 703 0 702 2433 -1
c1337 0 2437 2 2444 4 7 2 10 29 9 78 -2 41 0 77 4 79 6 4 5 50 0 50 -7 0 -4
187 2 191 5 3 5 10 1 17 -8 13 -11 457 -2 462 5 4 4 50 -1 50 -8 0 -5 82 3 93
5 7 6 12 0 12 -7 0 -11 80 -3 88 3 3 3 41 0 45 -7 7 -4 189 2 193 5 3 5 10 1
17 -8 13 -11 457 -2 462 5 4 4 50 -1 50 -8 0 -5 82 3 93 5 7 6 12 0 12 -11 0
-11 71 1 89 7 11 6 12 -5 6 -12 -8 -12 -6 0 8 9 11 10 17 2 17 -6 0 -10 3 -10
8 1 4 1 14 0 23 -1 15 -320 16 -3706 16 -2038 0 -3705 -1 -3705 -1z"/>
</g>
</svg>
