<svg fill="none" xmlns="http://www.w3.org/2000/svg" viewBox="0 0 1280 240"><g clip-path="url(#a)"><path d="M0 4.612h99.105c57.954 0 95.494 29.958 95.494 80.67v.662c0 54.661-41.812 83.297-98.783 83.297H63.87v65.852H0V4.612ZM94.493 119.19c22.381 0 36.539-12.191 36.539-30.298v-.662c0-19.751-14.158-29.958-36.879-29.958h-30.3v60.9h30.622l.018.018Z" fill="#fff"/><path d="M0 4.612h99.105c57.954 0 95.494 29.958 95.494 80.67v.662c0 54.661-41.812 83.297-98.783 83.297H63.87v65.852H0V4.612ZM94.493 119.19c22.381 0 36.539-12.191 36.539-30.298v-.662c0-19.751-14.158-29.958-36.879-29.958h-30.3v60.9h30.622l.018.018Z" fill="#DC428C"/><path d="M316.192 120.514v-.662C316.192 52.678 368.873 0 440.002 0c32.624 0 57.543 7.9 78.744 21.986l-35.162 47.477c-12.567-8.062-25.956-12.495-43.242-12.495-33.25 0-58.938 27.653-58.938 62.884v.662c0 37.537 26.01 64.207 62.567 64.207 15.802 0 27.654-3.289 36.878-9.545v-32.283H444.9V96.704h96.531v107.108c-24.365 20.413-57.954 35.893-100.088 35.893-71.773 0-125.115-49.389-125.115-119.191h-.036Z" fill="#fff"/><path d="M316.192 120.514v-.662C316.192 52.678 368.873 0 440.002 0c32.624 0 57.543 7.9 78.744 21.986l-35.162 47.477c-12.567-8.062-25.956-12.495-43.242-12.495-33.25 0-58.938 27.653-58.938 62.884v.662c0 37.537 26.01 64.207 62.567 64.207 15.802 0 27.654-3.289 36.878-9.545v-32.283H444.9V96.704h96.531v107.108c-24.365 20.413-57.954 35.893-100.088 35.893-71.773 0-125.115-49.389-125.115-119.191h-.036Z" fill="#DC428C"/><path d="M575.503 4.612h185.375v54H638.731v35.232h110.635v50.372H638.731v36.555h123.81v54.322h-187.02V4.63l-.018-.018Z" fill="#fff"/><path d="M575.503 4.612h185.375v54H638.731v35.232h110.635v50.372H638.731v36.555h123.81v54.322h-187.02V4.63l-.018-.018Z" fill="#DC428C"/><path d="M783.509 120.496v-.661C783.509 53.661 836.852 0 907.963 0c71.111 0 123.787 53 123.787 119.191v.661c0 66.174-53.338 119.835-124.449 119.835-71.111 0-123.792-53-123.792-119.191Zm182.73 0v-.661c0-33.588-23.704-62.224-58.938-62.224s-58.598 28.315-58.598 61.562v.662c0 33.247 24.044 62.223 59.26 62.223 34.894 0 58.276-28.314 58.276-61.562Z" fill="#fff"/><path d="M783.509 120.496v-.661C783.509 53.661 836.852 0 907.963 0c71.111 0 123.787 53 123.787 119.191v.661c0 66.174-53.338 119.835-124.449 119.835-71.111 0-123.792-53-123.792-119.191Zm182.73 0v-.661c0-33.588-23.704-62.224-58.938-62.224s-58.598 28.315-58.598 61.562v.662c0 33.247 24.044 62.223 59.26 62.223 34.894 0 58.276-28.314 58.276-61.562Z" fill="#DC428C"/><path d="M1062.36 4.612h59.6l94.83 121.819V4.611H1280v230.464h-55.65l-98.78-126.43v126.43h-63.21V4.612Z" fill="#fff"/><path d="M1062.36 4.612h59.6l94.83 121.819V4.611H1280v230.464h-55.65l-98.78-126.43v126.43h-63.21V4.612Z" fill="#DC428C"/><path d="M287.037 4.612v230.481h-63.21V4.63h63.21v-.018Z" fill="#fff"/><path d="M287.037 4.612v230.481h-63.21V4.63h63.21v-.018Z" fill="#DC428C"/></g><defs><clipPath id="a"><path fill="#fff" d="M0 0h1280v239.687H0z"/></clipPath></defs></svg>